<svg xmlns="http://www.w3.org/2000/svg" width="1280" height="268" viewBox="0 0 1280 268" fill="none" role="img" aria-label="Signals — 197 contributions, 161 commits, 7 public repos">
<title>Signals — 197 contributions, 161 commits, 7 public repos</title>
<desc>Language split: TypeScript 61.8%, Python 27.7%, JavaScript 6.1%, OTHER 4.4%</desc>
<style>
  
    text{dominant-baseline:auto}
    @media (prefers-reduced-motion:reduce){
      *{animation:none!important;opacity:1!important;transform:none!important}
      
    }
  
  .rail{animation:fade 7s cubic-bezier(.22,1,.36,1) infinite backwards}
  @keyframes fade{0%,2%{opacity:0}9%,90%{opacity:1}97%,100%{opacity:0}}

  .hr{transform-origin:64px 0;animation:hr 7s cubic-bezier(.22,1,.36,1) infinite backwards}
  @keyframes hr{0%,3%{transform:scaleX(0)}13%,90%{transform:scaleX(1)}97%,100%{transform:scaleX(0)}}

  .lab{animation:lab 7s cubic-bezier(.22,1,.36,1) infinite backwards;animation-delay:calc(var(--i)*70ms)}
  @keyframes lab{0%,5%{opacity:0}14%,90%{opacity:1}97%,100%{opacity:0}}

  .num{animation:num 7s cubic-bezier(.22,1,.36,1) infinite backwards;animation-delay:calc(var(--i)*90ms)}
  @keyframes num{
    0%,7.143%{opacity:0;transform:translateY(20px)}
    16.429%,88.571%{opacity:1;transform:translateY(0)}
    97.143%,100%{opacity:0}
  }

  .seg{animation:seg 7s cubic-bezier(.22,1,.36,1) infinite backwards;animation-delay:calc(var(--i)*85ms)}
  @keyframes seg{
    0%,18.571%{transform:scaleX(0)}
    30.000%,88.571%{transform:scaleX(1)}
    97.143%,100%{transform:scaleX(0)}
  }

  .leg{animation:leg 7s cubic-bezier(.22,1,.36,1) infinite backwards;animation-delay:calc(var(--i)*75ms)}
  @keyframes leg{
    0%,27.143%{opacity:0;transform:translateY(6px)}
    35.000%,88.571%{opacity:1;transform:translateY(0)}
    97.143%,100%{opacity:0}
  }

  .pulse{transform-box:fill-box;transform-origin:center;animation:pulse 2.4s cubic-bezier(.4,0,.2,1) infinite backwards}
  @keyframes pulse{0%,100%{opacity:1;transform:scale(1)}50%{opacity:.38;transform:scale(.72)}}
  </style>
<rect width="1280" height="268" fill="#FAFAF8" />
<g><line x1="0.5" y1="0" x2="0.5" y2="268" stroke="rgba(10,10,10,0.06)" stroke-width="1" class="gc" style="--i:0" /><line x1="64.5" y1="0" x2="64.5" y2="268" stroke="rgba(10,10,10,0.06)" stroke-width="1" class="gc" style="--i:1" /><line x1="128.5" y1="0" x2="128.5" y2="268" stroke="rgba(10,10,10,0.06)" stroke-width="1" class="gc" style="--i:2" /><line x1="192.5" y1="0" x2="192.5" y2="268" stroke="rgba(10,10,10,0.06)" stroke-width="1" class="gc" style="--i:3" /><line x1="256.5" y1="0" x2="256.5" y2="268" stroke="rgba(10,10,10,0.06)" stroke-width="1" class="gc" style="--i:4" /><line x1="320.5" y1="0" x2="320.5" y2="268" stroke="rgba(10,10,10,0.06)" stroke-width="1" class="gc" style="--i:5" /><line x1="384.5" y1="0" x2="384.5" y2="268" stroke="rgba(10,10,10,0.06)" stroke-width="1" class="gc" style="--i:6" /><line x1="448.5" y1="0" x2="448.5" y2="268" stroke="rgba(10,10,10,0.06)" stroke-width="1" class="gc" style="--i:7" /><line x1="512.5" y1="0" x2="512.5" y2="268" stroke="rgba(10,10,10,0.06)" stroke-width="1" class="gc" style="--i:8" /><line x1="576.5" y1="0" x2="576.5" y2="268" stroke="rgba(10,10,10,0.06)" stroke-width="1" class="gc" style="--i:9" /><line x1="640.5" y1="0" x2="640.5" y2="268" stroke="rgba(10,10,10,0.06)" stroke-width="1" class="gc" style="--i:10" /><line x1="704.5" y1="0" x2="704.5" y2="268" stroke="rgba(10,10,10,0.06)" stroke-width="1" class="gc" style="--i:11" /><line x1="768.5" y1="0" x2="768.5" y2="268" stroke="rgba(10,10,10,0.06)" stroke-width="1" class="gc" style="--i:12" /><line x1="832.5" y1="0" x2="832.5" y2="268" stroke="rgba(10,10,10,0.06)" stroke-width="1" class="gc" style="--i:13" /><line x1="896.5" y1="0" x2="896.5" y2="268" stroke="rgba(10,10,10,0.06)" stroke-width="1" class="gc" style="--i:14" /><line x1="960.5" y1="0" x2="960.5" y2="268" stroke="rgba(10,10,10,0.06)" stroke-width="1" class="gc" style="--i:15" /><line x1="1024.5" y1="0" x2="1024.5" y2="268" stroke="rgba(10,10,10,0.06)" stroke-width="1" class="gc" style="--i:16" /><line x1="1088.5" y1="0" x2="1088.5" y2="268" stroke="rgba(10,10,10,0.06)" stroke-width="1" class="gc" style="--i:17" /><line x1="1152.5" y1="0" x2="1152.5" y2="268" stroke="rgba(10,10,10,0.06)" stroke-width="1" class="gc" style="--i:18" /><line x1="1216.5" y1="0" x2="1216.5" y2="268" stroke="rgba(10,10,10,0.06)" stroke-width="1" class="gc" style="--i:19" /><line x1="1280.5" y1="0" x2="1280.5" y2="268" stroke="rgba(10,10,10,0.06)" stroke-width="1" class="gc" style="--i:20" /></g>

<g class="rail">
  <rect x="64" y="40" width="7" height="7" fill="#E8380F" />
  <text x="82" y="47" font-family="ui-monospace,'SF Mono',SFMono-Regular,Menlo,Consolas,'Liberation Mono',monospace" font-size="12" font-weight="500" letter-spacing="3" fill="#5F5F5F" fill-opacity="1" text-anchor="start" xml:space="preserve">SIGNALS</text>
  <circle cx="875.4" cy="43.5" r="3.5" fill="#E8380F" class="pulse" />
  <text x="1216" y="47" font-family="ui-monospace,'SF Mono',SFMono-Regular,Menlo,Consolas,'Liberation Mono',monospace" font-size="11.5" font-weight="500" letter-spacing="2.2" fill="#5F5F5F" fill-opacity="1" text-anchor="end" xml:space="preserve">SELF-COMPUTED · LAST PUSH 2026-09-24</text>
</g>
<g class="hr"><rect x="64" y="68.5" width="1152" height="1" fill="rgba(10,10,10,0.14)" /></g>

<text style="--i:0" x="64" y="104" font-family="ui-monospace,'SF Mono',SFMono-Regular,Menlo,Consolas,'Liberation Mono',monospace" font-size="10.5" font-weight="500" letter-spacing="3.2" fill="#5F5F5F" fill-opacity="1" text-anchor="start" class="lab" xml:space="preserve">CONTRIBUTIONS</text><text style="--i:1" x="448" y="104" font-family="ui-monospace,'SF Mono',SFMono-Regular,Menlo,Consolas,'Liberation Mono',monospace" font-size="10.5" font-weight="500" letter-spacing="3.2" fill="#5F5F5F" fill-opacity="1" text-anchor="start" class="lab" xml:space="preserve">COMMITS</text><text style="--i:2" x="832" y="104" font-family="ui-monospace,'SF Mono',SFMono-Regular,Menlo,Consolas,'Liberation Mono',monospace" font-size="10.5" font-weight="500" letter-spacing="3.2" fill="#5F5F5F" fill-opacity="1" text-anchor="start" class="lab" xml:space="preserve">PUBLIC REPOS</text>
<g transform="translate(64 158)"><g class="num" style="--i:0"><path d="M20.07 0L13.42 0L13.42-31.51L12.48-31.51L7.59-19.97L0.62-19.97L8.06-36.40L20.07-36.40" fill="#0A0A0A" /><path d="M37.60 0.73Q31.52 0.73 27.90-2.29Q24.29-5.30 24.29-10.61L31.05-10.61Q31.05-8.42 32.58-6.81Q34.12-5.20 37.60-5.20Q41.14-5.20 43.01-7.05Q44.88-8.89 44.88-12.06L44.88-15.81L43.94-15.81Q43.06-14.77 41.27-13.83Q39.47-12.90 35.94-12.90Q32.82-12.90 30.11-14.25Q27.41-15.60 25.74-18.17Q24.08-20.75 24.08-24.39L24.08-25.01Q24.08-28.65 25.80-31.36Q27.51-34.06 30.63-35.59Q33.75-37.13 37.91-37.13Q42.07-37.13 45.14-35.57Q48.21-34.01 49.87-31.25Q51.54-28.50 51.54-24.91L51.54-12.48Q51.54-8.06 49.74-5.12Q47.95-2.18 44.80-0.73Q41.66 0.73 37.60 0.73M37.81-18.20Q41.03-18.20 42.96-19.92Q44.88-21.63 44.88-24.49L44.88-24.91Q44.88-27.82 42.98-29.51Q41.08-31.20 37.81-31.20Q34.53-31.20 32.63-29.51Q30.74-27.82 30.74-24.91L30.74-24.49Q30.74-21.63 32.66-19.92Q34.58-18.20 37.81-18.20" fill="#0A0A0A" /><path d="M65.07 0L58.41 0L58.41-1.35Q58.41-3.38 58.72-4.81Q59.04-6.24 60.08-8.06L72.30-29.64L72.30-30.47L52.95-30.47L52.95-36.40L79.16-36.40L79.16-28.50L66.26-5.46Q65.59-4.26 65.33-3.33Q65.07-2.39 65.07-1.04" fill="#0A0A0A" /></g></g><g transform="translate(448 158)"><g class="num" style="--i:1"><path d="M20.07 0L13.42 0L13.42-31.51L12.48-31.51L7.59-19.97L0.62-19.97L8.06-36.40L20.07-36.40" fill="#0A0A0A" /><path d="M38.22 0.73Q34.06 0.73 31-0.83Q27.93-2.39 26.26-5.15Q24.60-7.90 24.60-11.49L24.60-23.92Q24.60-28.34 26.39-31.28Q28.19-34.22 31.33-35.67Q34.48-37.13 38.54-37.13Q44.62-37.13 48.23-34.11Q51.85-31.10 51.85-25.79L45.09-25.79Q45.09-27.98 43.58-29.59Q42.07-31.20 38.54-31.20Q35.05-31.20 33.15-29.38Q31.26-27.56 31.26-24.34L31.26-20.59L32.19-20.59Q33.08-21.63 34.90-22.57Q36.72-23.50 40.20-23.50Q43.37-23.50 46.05-22.15Q48.73-20.80 50.39-18.23Q52.06-15.65 52.06-12.01L52.06-11.39Q52.06-7.80 50.34-5.07Q48.62-2.34 45.50-0.81Q42.38 0.73 38.22 0.73M38.33-5.20Q41.60-5.20 43.50-6.92Q45.40-8.63 45.40-11.49L45.40-11.91Q45.40-14.82 43.48-16.51Q41.55-18.20 38.33-18.20Q35.10-18.20 33.18-16.51Q31.26-14.82 31.26-11.91L31.26-11.49Q31.26-8.63 33.15-6.92Q35.05-5.20 38.33-5.20" fill="#0A0A0A" /><path d="M72.50 0L65.85 0L65.85-31.51L64.91-31.51L60.02-19.97L53.05-19.97L60.49-36.40L72.50-36.40" fill="#0A0A0A" /></g></g><g transform="translate(832 158)"><g class="num" style="--i:2"><path d="M13.47 0L6.81 0L6.81-1.35Q6.81-3.38 7.12-4.81Q7.44-6.24 8.48-8.06L20.70-29.64L20.70-30.47L1.35-30.47L1.35-36.40L27.56-36.40L27.56-28.50L14.66-5.46Q13.99-4.26 13.73-3.33Q13.47-2.39 13.47-1.04" fill="#0A0A0A" /></g></g>

<g class="hr"><rect x="64" y="188.5" width="1152" height="1" fill="rgba(10,10,10,0.14)" /></g>
<rect x="64.0" y="210" width="710.2" height="14" fill="#3178c6" class="seg" style="--i:0;transform-origin:64.0px 0" /><rect x="776.2" y="210" width="317.5" height="14" fill="#3572A5" class="seg" style="--i:1;transform-origin:776.2px 0" /><rect x="1095.7" y="210" width="68.0" height="14" fill="#f1e05a" class="seg" style="--i:2;transform-origin:1095.7px 0" /><rect x="1165.7" y="210" width="48.3" height="14" fill="#5F5F5F" class="seg" style="--i:3;transform-origin:1165.7px 0" />
<g class="leg" style="--i:0"><circle cx="68" cy="242" r="4" fill="#3178c6" /><text x="79" y="246" font-family="ui-monospace,'SF Mono',SFMono-Regular,Menlo,Consolas,'Liberation Mono',monospace" font-size="10.5" font-weight="500" letter-spacing="1.4" fill="#5F5F5F" fill-opacity="1" text-anchor="start" xml:space="preserve">TYPESCRIPT 61.8%</text></g><g class="leg" style="--i:1"><circle cx="223.6" cy="242" r="4" fill="#3572A5" /><text x="234.6" y="246" font-family="ui-monospace,'SF Mono',SFMono-Regular,Menlo,Consolas,'Liberation Mono',monospace" font-size="10.5" font-weight="500" letter-spacing="1.4" fill="#5F5F5F" fill-opacity="1" text-anchor="start" xml:space="preserve">PYTHON 27.7%</text></g><g class="leg" style="--i:2"><circle cx="350.79999999999995" cy="242" r="4" fill="#f1e05a" /><text x="361.79999999999995" y="246" font-family="ui-monospace,'SF Mono',SFMono-Regular,Menlo,Consolas,'Liberation Mono',monospace" font-size="10.5" font-weight="500" letter-spacing="1.4" fill="#5F5F5F" fill-opacity="1" text-anchor="start" xml:space="preserve">JAVASCRIPT 6.1%</text></g><g class="leg" style="--i:3"><circle cx="499.29999999999995" cy="242" r="4" fill="#5F5F5F" /><text x="510.29999999999995" y="246" font-family="ui-monospace,'SF Mono',SFMono-Regular,Menlo,Consolas,'Liberation Mono',monospace" font-size="10.5" font-weight="500" letter-spacing="1.4" fill="#5F5F5F" fill-opacity="1" text-anchor="start" xml:space="preserve">OTHER 4.4%</text></g>
</svg>